<?xml version="1.0" encoding="UTF-8" standalone="no"?>
<!DOCTYPE svg PUBLIC "-//W3C//DTD SVG 1.1//EN"
 "http://www.w3.org/Graphics/SVG/1.1/DTD/svg11.dtd">
<!-- Generated by graphviz version 2.43.0 (0)
 -->
<!-- Title: G Pages: 1 -->
<svg width="2236pt" height="521pt"
 viewBox="0.00 0.00 2236.00 520.96" xmlns="http://www.w3.org/2000/svg" xmlns:xlink="http://www.w3.org/1999/xlink">
<g id="graph0" class="graph" transform="scale(1 1) rotate(0) translate(4 516.96)">
<title>G</title>
<polygon fill="white" stroke="transparent" points="-4,4 -4,-516.96 2232,-516.96 2232,4 -4,4"/>
<g id="clust1" class="cluster">
<title>cluster_G</title>
<path fill="#808080" fill-opacity="0.094118" stroke="black" d="M20,-8C20,-8 2208,-8 2208,-8 2214,-8 2220,-14 2220,-20 2220,-20 2220,-492.96 2220,-492.96 2220,-498.96 2214,-504.96 2208,-504.96 2208,-504.96 20,-504.96 20,-504.96 14,-504.96 8,-498.96 8,-492.96 8,-492.96 8,-20 8,-20 8,-14 14,-8 20,-8"/>
</g>
<g id="clust2" class="cluster">
<title>cluster_helper</title>
<path fill="#808080" fill-opacity="0.094118" stroke="black" d="M28,-16C28,-16 1460,-16 1460,-16 1466,-16 1472,-22 1472,-28 1472,-28 1472,-368.96 1472,-368.96 1472,-374.96 1466,-380.96 1460,-380.96 1460,-380.96 28,-380.96 28,-380.96 22,-380.96 16,-374.96 16,-368.96 16,-368.96 16,-28 16,-28 16,-22 22,-16 28,-16"/>
<text text-anchor="middle" x="744" y="-365.76" font-family="Times,serif" font-size="14.00">helper</text>
</g>
<g id="clust3" class="cluster">
<title>cluster_helper__ClientModel</title>
<path fill="#808080" fill-opacity="0.094118" stroke="black" d="M1492,-16C1492,-16 1830,-16 1830,-16 1836,-16 1842,-22 1842,-28 1842,-28 1842,-96.74 1842,-96.74 1842,-102.74 1836,-108.74 1830,-108.74 1830,-108.74 1492,-108.74 1492,-108.74 1486,-108.74 1480,-102.74 1480,-96.74 1480,-96.74 1480,-28 1480,-28 1480,-22 1486,-16 1492,-16"/>
<text text-anchor="middle" x="1661" y="-93.54" font-family="Times,serif" font-size="14.00">helper.ClientModel</text>
</g>
<g id="clust4" class="cluster">
<title>cluster_helper__FusionModel</title>
<path fill="#808080" fill-opacity="0.094118" stroke="black" d="M1862,-16C1862,-16 2200,-16 2200,-16 2206,-16 2212,-22 2212,-28 2212,-28 2212,-96.74 2212,-96.74 2212,-102.74 2206,-108.74 2200,-108.74 2200,-108.74 1862,-108.74 1862,-108.74 1856,-108.74 1850,-102.74 1850,-96.74 1850,-96.74 1850,-28 1850,-28 1850,-22 1856,-16 1862,-16"/>
<text text-anchor="middle" x="2031" y="-93.54" font-family="Times,serif" font-size="14.00">helper.FusionModel</text>
</g>
<!-- helper -->
<g id="node1" class="node">
<title>helper</title>
<ellipse fill="#ffffff" fill-opacity="0.698039" stroke="black" cx="621" cy="-406.96" rx="40.09" ry="18"/>
<text text-anchor="middle" x="621" y="-403.26" font-family="Times,serif" font-size="14.00" fill="#000000">helper</text>
</g>
<!-- helper&#45;&gt;helper -->
<g id="edge1" class="edge">
<title>helper&#45;&gt;helper</title>
<path fill="none" stroke="#000000" d="M649.49,-419.86C665.05,-422.16 679.3,-417.86 679.3,-406.96 679.3,-398.53 670.77,-394.05 659.71,-393.51"/>
<polygon fill="#000000" stroke="#000000" points="659.29,-390.03 649.49,-394.06 659.67,-397.02 659.29,-390.03"/>
</g>
<!-- helper__generateAnalysis -->
<g id="node7" class="node">
<title>helper__generateAnalysis</title>
<ellipse fill="#fecccc" fill-opacity="0.698039" stroke="black" cx="621" cy="-323.09" rx="98.99" ry="26.74"/>
<text text-anchor="middle" x="621" y="-326.89" font-family="Times,serif" font-size="14.00" fill="#000000">generateAnalysis</text>
<text text-anchor="middle" x="621" y="-311.89" font-family="Times,serif" font-size="14.00" fill="#000000">(helper.py:411)</text>
</g>
<!-- helper&#45;&gt;helper__generateAnalysis -->
<g id="edge2" class="edge">
<title>helper&#45;&gt;helper__generateAnalysis</title>
<path fill="none" stroke="#000000" d="M621,-388.6C621,-380.31 621,-370.06 621,-360.19"/>
<polygon fill="#000000" stroke="#000000" points="624.5,-360.14 621,-350.14 617.5,-360.14 624.5,-360.14"/>
</g>
<!-- vfl_robustness_analysis -->
<g id="node2" class="node">
<title>vfl_robustness_analysis</title>
<ellipse fill="#ffffff" fill-opacity="0.698039" stroke="black" cx="660" cy="-478.96" rx="119.68" ry="18"/>
<text text-anchor="middle" x="660" y="-475.26" font-family="Times,serif" font-size="14.00" fill="#000000">vfl_robustness_analysis</text>
</g>
<!-- vfl_robustness_analysis&#45;&gt;helper -->
<g id="edge15" class="edge">
<title>vfl_robustness_analysis&#45;&gt;helper</title>
<path fill="none" stroke="#000000" d="M650.56,-461.02C645.96,-452.76 640.33,-442.66 635.23,-433.5"/>
<polygon fill="#000000" stroke="#000000" points="638.28,-431.78 630.35,-424.75 632.16,-435.19 638.28,-431.78"/>
</g>
<!-- vfl_robustness_analysis&#45;&gt;helper__generateAnalysis -->
<g id="edge16" class="edge">
<title>vfl_robustness_analysis&#45;&gt;helper__generateAnalysis</title>
<path fill="none" stroke="#000000" d="M672.48,-460.88C684.13,-442.71 698.3,-413.27 688,-388.96 682.66,-376.37 673.56,-365.02 663.74,-355.47"/>
<polygon fill="#000000" stroke="#000000" points="665.9,-352.7 656.16,-348.53 661.17,-357.86 665.9,-352.7"/>
</g>
<!-- helper__ClientModel -->
<g id="node3" class="node">
<title>helper__ClientModel</title>
<ellipse fill="#fecccc" fill-opacity="0.698039" stroke="black" cx="644" cy="-50.87" rx="82.05" ry="26.74"/>
<text text-anchor="middle" x="644" y="-54.67" font-family="Times,serif" font-size="14.00" fill="#000000">ClientModel</text>
<text text-anchor="middle" x="644" y="-39.67" font-family="Times,serif" font-size="14.00" fill="#000000">(helper.py:20)</text>
</g>
<!-- helper__FusionModel -->
<g id="node4" class="node">
<title>helper__FusionModel</title>
<ellipse fill="#fecccc" fill-opacity="0.698039" stroke="black" cx="908" cy="-50.87" rx="82.05" ry="26.74"/>
<text text-anchor="middle" x="908" y="-54.67" font-family="Times,serif" font-size="14.00" fill="#000000">FusionModel</text>
<text text-anchor="middle" x="908" y="-39.67" font-family="Times,serif" font-size="14.00" fill="#000000">(helper.py:51)</text>
</g>
<!-- helper__evaulateEnsemble -->
<g id="node5" class="node">
<title>helper__evaulateEnsemble</title>
<ellipse fill="#fecccc" fill-opacity="0.698039" stroke="black" cx="129" cy="-143.61" rx="104.8" ry="26.74"/>
<text text-anchor="middle" x="129" y="-147.41" font-family="Times,serif" font-size="14.00" fill="#000000">evaulateEnsemble</text>
<text text-anchor="middle" x="129" y="-132.41" font-family="Times,serif" font-size="14.00" fill="#000000">(helper.py:283)</text>
</g>
<!-- helper__generateAUPRCGraph -->
<g id="node6" class="node">
<title>helper__generateAUPRCGraph</title>
<ellipse fill="#fecccc" fill-opacity="0.698039" stroke="black" cx="377" cy="-143.61" rx="125.32" ry="26.74"/>
<text text-anchor="middle" x="377" y="-147.41" font-family="Times,serif" font-size="14.00" fill="#000000">generateAUPRCGraph</text>
<text text-anchor="middle" x="377" y="-132.41" font-family="Times,serif" font-size="14.00" fill="#000000">(helper.py:252)</text>
</g>
<!-- helper__generateNoisyDataloader -->
<g id="node11" class="node">
<title>helper__generateNoisyDataloader</title>
<ellipse fill="#fecccc" fill-opacity="0.698039" stroke="black" cx="467" cy="-233.35" rx="141.34" ry="26.74"/>
<text text-anchor="middle" x="467" y="-237.15" font-family="Times,serif" font-size="14.00" fill="#000000">generateNoisyDataloader</text>
<text text-anchor="middle" x="467" y="-222.15" font-family="Times,serif" font-size="14.00" fill="#000000">(helper.py:194)</text>
</g>
<!-- helper__generateAnalysis&#45;&gt;helper__generateNoisyDataloader -->
<g id="edge14" class="edge">
<title>helper__generateAnalysis&#45;&gt;helper__generateNoisyDataloader</title>
<path fill="none" stroke="#000000" d="M579.73,-298.58C561.11,-287.97 538.91,-275.32 519.15,-264.06"/>
<polygon fill="#000000" stroke="#000000" points="520.69,-260.91 510.27,-259 517.22,-266.99 520.69,-260.91"/>
</g>
<!-- helper__trainAndEvaulateEnsemble -->
<g id="node12" class="node">
<title>helper__trainAndEvaulateEnsemble</title>
<ellipse fill="#fecccc" fill-opacity="0.698039" stroke="black" cx="776" cy="-233.35" rx="149.81" ry="26.74"/>
<text text-anchor="middle" x="776" y="-237.15" font-family="Times,serif" font-size="14.00" fill="#000000">trainAndEvaulateEnsemble</text>
<text text-anchor="middle" x="776" y="-222.15" font-family="Times,serif" font-size="14.00" fill="#000000">(helper.py:338)</text>
</g>
<!-- helper__generateAnalysis&#45;&gt;helper__trainAndEvaulateEnsemble -->
<g id="edge13" class="edge">
<title>helper__generateAnalysis&#45;&gt;helper__trainAndEvaulateEnsemble</title>
<path fill="none" stroke="#000000" d="M662.54,-298.58C681.2,-288.01 703.44,-275.42 723.26,-264.2"/>
<polygon fill="#000000" stroke="#000000" points="725.2,-267.13 732.18,-259.16 721.75,-261.04 725.2,-267.13"/>
</g>
<!-- helper__generateClientModels -->
<g id="node8" class="node">
<title>helper__generateClientModels</title>
<ellipse fill="#fecccc" fill-opacity="0.698039" stroke="black" cx="644" cy="-143.61" rx="123.99" ry="26.74"/>
<text text-anchor="middle" x="644" y="-147.41" font-family="Times,serif" font-size="14.00" fill="#000000">generateClientModels</text>
<text text-anchor="middle" x="644" y="-132.41" font-family="Times,serif" font-size="14.00" fill="#000000">(helper.py:63)</text>
</g>
<!-- helper__generateClientModels&#45;&gt;helper__ClientModel -->
<g id="edge4" class="edge">
<title>helper__generateClientModels&#45;&gt;helper__ClientModel</title>
<path fill="none" stroke="#000000" d="M644,-116.36C644,-107.45 644,-97.32 644,-87.78"/>
<polygon fill="#000000" stroke="#000000" points="647.5,-87.74 644,-77.74 640.5,-87.74 647.5,-87.74"/>
</g>
<!-- helper__ClientModel____init__ -->
<g id="node14" class="node">
<title>helper__ClientModel____init__</title>
<ellipse fill="#ff9999" fill-opacity="0.698039" stroke="black" cx="1752" cy="-50.87" rx="82.05" ry="26.74"/>
<text text-anchor="middle" x="1752" y="-54.67" font-family="Times,serif" font-size="14.00" fill="#000000">__init__</text>
<text text-anchor="middle" x="1752" y="-39.67" font-family="Times,serif" font-size="14.00" fill="#000000">(helper.py:21)</text>
</g>
<!-- helper__generateClientModels&#45;&gt;helper__ClientModel____init__ -->
<g id="edge3" class="edge">
<title>helper__generateClientModels&#45;&gt;helper__ClientModel____init__</title>
<path fill="none" stroke="#000000" d="M728.08,-123.84C744.24,-120.92 761.09,-118.35 777,-116.74 825.86,-111.81 1613.85,-122.49 1661,-108.74 1679.86,-103.24 1698.63,-92.62 1714.18,-82.03"/>
<polygon fill="#000000" stroke="#000000" points="1716.31,-84.81 1722.46,-76.18 1712.27,-79.09 1716.31,-84.81"/>
</g>
<!-- helper__generateFusionModel -->
<g id="node9" class="node">
<title>helper__generateFusionModel</title>
<ellipse fill="#fecccc" fill-opacity="0.698039" stroke="black" cx="908" cy="-143.61" rx="122.16" ry="26.74"/>
<text text-anchor="middle" x="908" y="-147.41" font-family="Times,serif" font-size="14.00" fill="#000000">generateFusionModel</text>
<text text-anchor="middle" x="908" y="-132.41" font-family="Times,serif" font-size="14.00" fill="#000000">(helper.py:85)</text>
</g>
<!-- helper__generateFusionModel&#45;&gt;helper__FusionModel -->
<g id="edge5" class="edge">
<title>helper__generateFusionModel&#45;&gt;helper__FusionModel</title>
<path fill="none" stroke="#000000" d="M908,-116.36C908,-107.45 908,-97.32 908,-87.78"/>
<polygon fill="#000000" stroke="#000000" points="911.5,-87.74 908,-77.74 904.5,-87.74 911.5,-87.74"/>
</g>
<!-- helper__FusionModel____init__ -->
<g id="node16" class="node">
<title>helper__FusionModel____init__</title>
<ellipse fill="#ff9999" fill-opacity="0.698039" stroke="black" cx="2122" cy="-50.87" rx="82.05" ry="26.74"/>
<text text-anchor="middle" x="2122" y="-54.67" font-family="Times,serif" font-size="14.00" fill="#000000">__init__</text>
<text text-anchor="middle" x="2122" y="-39.67" font-family="Times,serif" font-size="14.00" fill="#000000">(helper.py:52)</text>
</g>
<!-- helper__generateFusionModel&#45;&gt;helper__FusionModel____init__ -->
<g id="edge6" class="edge">
<title>helper__generateFusionModel&#45;&gt;helper__FusionModel____init__</title>
<path fill="none" stroke="#000000" d="M990.81,-123.83C1006.72,-120.91 1023.32,-118.34 1039,-116.74 1093.83,-111.15 1978.08,-124.15 2031,-108.74 2049.87,-103.25 2068.63,-92.63 2084.18,-82.04"/>
<polygon fill="#000000" stroke="#000000" points="2086.31,-84.82 2092.47,-76.19 2082.28,-79.1 2086.31,-84.82"/>
</g>
<!-- helper__generateLossGraph -->
<g id="node10" class="node">
<title>helper__generateLossGraph</title>
<ellipse fill="#fecccc" fill-opacity="0.698039" stroke="black" cx="1159" cy="-143.61" rx="111.03" ry="26.74"/>
<text text-anchor="middle" x="1159" y="-147.41" font-family="Times,serif" font-size="14.00" fill="#000000">generateLossGraph</text>
<text text-anchor="middle" x="1159" y="-132.41" font-family="Times,serif" font-size="14.00" fill="#000000">(helper.py:221)</text>
</g>
<!-- helper__trainAndEvaulateEnsemble&#45;&gt;helper__evaulateEnsemble -->
<g id="edge11" class="edge">
<title>helper__trainAndEvaulateEnsemble&#45;&gt;helper__evaulateEnsemble</title>
<path fill="none" stroke="#000000" d="M670.52,-214.2C652.68,-211.41 634.34,-208.72 617,-206.48 451.39,-185.06 407.87,-197.01 243,-170.48 233.05,-168.88 222.68,-166.93 212.42,-164.82"/>
<polygon fill="#000000" stroke="#000000" points="213.13,-161.39 202.63,-162.76 211.69,-168.24 213.13,-161.39"/>
</g>
<!-- helper__trainAndEvaulateEnsemble&#45;&gt;helper__generateAUPRCGraph -->
<g id="edge10" class="edge">
<title>helper__trainAndEvaulateEnsemble&#45;&gt;helper__generateAUPRCGraph</title>
<path fill="none" stroke="#000000" d="M683.96,-212.11C620.5,-198.16 536.36,-179.65 472.22,-165.55"/>
<polygon fill="#000000" stroke="#000000" points="472.62,-162.05 462.1,-163.32 471.12,-168.89 472.62,-162.05"/>
</g>
<!-- helper__trainAndEvaulateEnsemble&#45;&gt;helper__generateClientModels -->
<g id="edge9" class="edge">
<title>helper__trainAndEvaulateEnsemble&#45;&gt;helper__generateClientModels</title>
<path fill="none" stroke="#000000" d="M738.17,-207.21C723.13,-197.21 705.69,-185.61 689.93,-175.14"/>
<polygon fill="#000000" stroke="#000000" points="691.64,-172.07 681.38,-169.45 687.77,-177.9 691.64,-172.07"/>
</g>
<!-- helper__trainAndEvaulateEnsemble&#45;&gt;helper__generateFusionModel -->
<g id="edge12" class="edge">
<title>helper__trainAndEvaulateEnsemble&#45;&gt;helper__generateFusionModel</title>
<path fill="none" stroke="#000000" d="M813.83,-207.21C828.87,-197.21 846.31,-185.61 862.07,-175.14"/>
<polygon fill="#000000" stroke="#000000" points="864.23,-177.9 870.62,-169.45 860.36,-172.07 864.23,-177.9"/>
</g>
<!-- helper__trainAndEvaulateEnsemble&#45;&gt;helper__generateLossGraph -->
<g id="edge8" class="edge">
<title>helper__trainAndEvaulateEnsemble&#45;&gt;helper__generateLossGraph</title>
<path fill="none" stroke="#000000" d="M865.8,-211.78C927.37,-197.67 1008.71,-179.04 1070.09,-164.98"/>
<polygon fill="#000000" stroke="#000000" points="1071.19,-168.32 1080.15,-162.67 1069.62,-161.49 1071.19,-168.32"/>
</g>
<!-- helper__trainEnsemble -->
<g id="node13" class="node">
<title>helper__trainEnsemble</title>
<ellipse fill="#fecccc" fill-opacity="0.698039" stroke="black" cx="1376" cy="-143.61" rx="88.28" ry="26.74"/>
<text text-anchor="middle" x="1376" y="-147.41" font-family="Times,serif" font-size="14.00" fill="#000000">trainEnsemble</text>
<text text-anchor="middle" x="1376" y="-132.41" font-family="Times,serif" font-size="14.00" fill="#000000">(helper.py:101)</text>
</g>
<!-- helper__trainAndEvaulateEnsemble&#45;&gt;helper__trainEnsemble -->
<g id="edge7" class="edge">
<title>helper__trainAndEvaulateEnsemble&#45;&gt;helper__trainEnsemble</title>
<path fill="none" stroke="#000000" d="M909.43,-221.01C1011.26,-211.13 1154.73,-194.58 1279,-170.48 1286.97,-168.94 1295.25,-167.1 1303.46,-165.12"/>
<polygon fill="#000000" stroke="#000000" points="1304.55,-168.46 1313.42,-162.66 1302.87,-161.66 1304.55,-168.46"/>
</g>
<!-- helper__ClientModel__forward -->
<g id="node15" class="node">
<title>helper__ClientModel__forward</title>
<ellipse fill="#ff9999" fill-opacity="0.698039" stroke="black" cx="1570" cy="-50.87" rx="82.05" ry="26.74"/>
<text text-anchor="middle" x="1570" y="-54.67" font-family="Times,serif" font-size="14.00" fill="#000000">forward</text>
<text text-anchor="middle" x="1570" y="-39.67" font-family="Times,serif" font-size="14.00" fill="#000000">(helper.py:37)</text>
</g>
<!-- helper__FusionModel__forward -->
<g id="node17" class="node">
<title>helper__FusionModel__forward</title>
<ellipse fill="#ff9999" fill-opacity="0.698039" stroke="black" cx="1940" cy="-50.87" rx="82.05" ry="26.74"/>
<text text-anchor="middle" x="1940" y="-54.67" font-family="Times,serif" font-size="14.00" fill="#000000">forward</text>
<text text-anchor="middle" x="1940" y="-39.67" font-family="Times,serif" font-size="14.00" fill="#000000">(helper.py:57)</text>
</g>
</g>
</svg>

